<svg width="24" height="24" viewBox="0 0 24 24" fill="none" xmlns="http://www.w3.org/2000/svg">
<path d="M12.0009 22.2454C17.5959 22.2454 22.2463 17.6048 22.2463 11.9999C22.2463 6.40495 17.5856 1.75452 11.9906 1.75452C6.38615 1.75452 1.75586 6.40495 1.75586 11.9999C1.75586 17.6048 6.396 22.2454 12.0009 22.2454ZM12.0013 20.5379C7.25957 20.5379 3.47229 16.7408 3.47229 11.9999C3.47229 7.26852 7.24929 3.46195 11.9906 3.46195C16.7216 3.46195 20.5281 7.26895 20.5384 11.9999C20.5483 16.7412 16.7314 20.5379 12.0004 20.5379M11.9906 13.8179C12.4723 13.8179 12.7436 13.5467 12.7534 13.0247L12.9043 7.72109C12.9146 7.20852 12.5126 6.82709 11.9803 6.82709C11.4377 6.82709 11.0563 7.19866 11.0661 7.7108L11.1969 13.0247C11.2067 13.5368 11.4883 13.8179 11.9906 13.8179ZM11.9906 17.0824C12.5627 17.0824 13.0749 16.6204 13.0749 16.0379C13.0749 15.4452 12.573 14.9931 11.9906 14.9931C11.3979 14.9931 10.9054 15.4551 10.9054 16.0379C10.9054 16.6105 11.4077 17.0824 11.9906 17.0824Z" fill="#FF8C27"/>
</svg>
